<svg width="82" height="26" viewBox="0 0 82 26" fill="none" xmlns="http://www.w3.org/2000/svg">
<path d="M7.1856 2.97987C7.21328 2.97978 7.24096 2.97969 7.26947 2.9796C7.34591 2.97938 7.42236 2.97926 7.4988 2.9792C7.58141 2.9791 7.66401 2.97887 7.74662 2.97866C7.94595 2.97818 8.14527 2.97793 8.3446 2.97771C8.43868 2.97761 8.53275 2.97748 8.62683 2.97735C8.93993 2.97693 9.25303 2.97658 9.56613 2.9764C9.64728 2.97636 9.72843 2.97631 9.80958 2.97626C9.83983 2.97624 9.83983 2.97624 9.87069 2.97623C10.1969 2.97602 10.5231 2.97541 10.8493 2.97461C11.1849 2.97381 11.5206 2.97337 11.8562 2.97329C12.0443 2.97324 12.2325 2.97303 12.4206 2.9724C12.5809 2.97187 12.7413 2.97168 12.9016 2.97191C12.9832 2.97202 13.0648 2.97198 13.1465 2.97151C14.1646 2.96587 14.9727 3.297 15.7098 4.05602C16.4349 4.82738 16.7767 6.02715 16.7841 7.1016C16.7841 7.16414 16.7839 7.22668 16.7837 7.28922C16.7837 7.32272 16.7836 7.35622 16.7836 7.38972C16.7835 7.47696 16.7833 7.5642 16.783 7.65144C16.7828 7.74083 16.7827 7.83023 16.7826 7.91962C16.7824 8.09434 16.782 8.26905 16.7815 8.44376C16.1439 8.46571 15.507 8.47133 14.8692 8.46981C14.7499 8.46956 14.6306 8.46945 14.5113 8.46933C14.2799 8.46907 14.0485 8.46866 13.8171 8.46814C13.817 8.44982 13.817 8.4315 13.8169 8.41263C13.816 8.23805 13.8147 8.06348 13.8129 7.88891C13.812 7.79922 13.8113 7.70952 13.8109 7.61982C13.8171 6.81107 13.8171 6.81107 13.4668 6.1142C13.3326 5.98858 13.1771 5.95435 13.0029 5.95428C12.9768 5.95421 12.9508 5.95414 12.9239 5.95407C12.8812 5.95414 12.8812 5.95414 12.8377 5.95422C12.8071 5.95419 12.7766 5.95414 12.7461 5.95409C12.6627 5.95398 12.5793 5.95403 12.4959 5.9541C12.4251 5.95415 12.3544 5.95411 12.2836 5.95406C12.0545 5.95392 11.8253 5.95407 11.5962 5.95428C11.5173 5.95434 11.4385 5.95439 11.3597 5.95443C10.4075 5.95498 9.45522 5.9557 8.50301 5.96443C8.43754 5.96499 8.37206 5.96542 8.30659 5.96581C8.20535 5.96643 8.10413 5.9674 8.0029 5.96866C7.96716 5.96906 7.93142 5.96935 7.89568 5.9695C7.26047 5.97262 6.70114 6.19082 6.22381 6.63991C6.1983 6.66283 6.17274 6.68568 6.14712 6.70847C5.69516 7.11227 5.17658 7.645 5.08368 8.2975C5.0562 8.70794 5.11178 9.08705 5.36426 9.41368C5.41689 9.47561 5.47035 9.53625 5.52482 9.59631C5.56623 9.64231 5.60696 9.68894 5.6476 9.73571C5.78474 9.89346 5.92289 10.0493 6.06642 10.2005C6.1227 10.2616 6.17439 10.3264 6.22658 10.3915C6.27686 10.4515 6.32982 10.5079 6.38343 10.5645C6.4652 10.6509 6.54189 10.7394 6.61654 10.8327C6.67867 10.9073 6.74574 10.9764 6.81223 11.0465C6.87233 11.1117 6.92791 11.1801 6.98361 11.2495C7.03381 11.3102 7.0876 11.3663 7.14162 11.423C7.19764 11.484 7.2491 11.5487 7.30124 11.6135C7.33973 11.6597 7.37963 11.7034 7.42096 11.7468C7.47552 11.8041 7.52658 11.8629 7.5763 11.925C7.63932 12.0033 7.70568 12.0764 7.7744 12.149C7.85665 12.2358 7.9339 12.3249 8.00902 12.4188C8.05072 12.4691 8.09446 12.5162 8.13924 12.5634C8.19712 12.6243 8.25192 12.6862 8.30456 12.7523C8.37492 12.8399 8.45009 12.9211 8.52689 13.0021C8.61728 13.0976 8.70351 13.1946 8.78592 13.2981C8.84131 13.3652 8.90132 13.427 8.96094 13.4898C9.00398 13.5365 9.04421 13.5846 9.08413 13.6344C9.14272 13.7073 9.20398 13.7756 9.26798 13.8431C9.34617 13.9256 9.41895 14.0109 9.4904 14.0999C9.54674 14.1677 9.60732 14.2305 9.66774 14.2941C9.72527 14.3566 9.77821 14.4226 9.83164 14.4891C9.88827 14.5571 9.94903 14.6202 10.0097 14.684C10.0677 14.7471 10.1213 14.8137 10.1752 14.8807C10.2134 14.9268 10.253 14.9701 10.2941 15.0132C10.3496 15.0715 10.4016 15.1314 10.4523 15.1945C10.5074 15.2629 10.5645 15.3276 10.6247 15.391C10.6989 15.469 10.7672 15.5505 10.835 15.6348C10.8773 15.6856 10.9215 15.7333 10.9668 15.781C11.0409 15.8591 11.1092 15.9405 11.177 16.0248C11.2193 16.0756 11.2635 16.1234 11.3088 16.1711C11.3681 16.2335 11.4243 16.297 11.4784 16.3646C11.537 16.4375 11.5983 16.5058 11.6623 16.5733C11.74 16.6552 11.8122 16.7399 11.8832 16.8285C11.9293 16.8837 11.9778 16.9357 12.0271 16.9877C12.0906 17.0547 12.1515 17.1224 12.2095 17.1949C12.3107 17.321 12.4209 17.4387 12.5348 17.5517C12.563 17.5849 12.563 17.5849 12.563 17.6337C12.3847 17.6354 12.2065 17.6367 12.0282 17.6374C11.9454 17.6378 11.8626 17.6383 11.7797 17.6392C11.3822 17.6431 10.9951 17.6317 10.6019 17.5605C10.559 17.5532 10.559 17.5532 10.5152 17.5458C10.446 17.5336 10.3772 17.5201 10.3084 17.5057C10.2839 17.5006 10.2595 17.4954 10.2344 17.4902C9.20288 17.2664 8.25662 16.8055 7.45516 16.0736C7.43835 16.0583 7.42154 16.0431 7.40421 16.0274C7.26593 15.8982 7.13632 15.7596 7.00623 15.6211C6.9878 15.6015 6.96937 15.5819 6.95038 15.5617C6.93251 15.5426 6.91464 15.5234 6.89623 15.5037C6.88036 15.4867 6.8645 15.4697 6.84816 15.4522C6.80579 15.4044 6.76583 15.3561 6.72592 15.3061C6.61958 15.176 6.50506 15.0549 6.39052 14.9331C6.36626 14.9072 6.34201 14.8813 6.31776 14.8554C6.26586 14.8 6.21392 14.7446 6.16196 14.6893C6.07966 14.6016 5.99744 14.5139 5.91524 14.4261C5.74073 14.2398 5.56613 14.0537 5.39151 13.8675C5.20295 13.6665 5.01441 13.4654 4.82597 13.2642C4.74439 13.1771 4.66276 13.0901 4.58108 13.0031C4.53014 12.9489 4.47924 12.8945 4.42836 12.8402C4.40491 12.8152 4.38145 12.7902 4.35796 12.7652C4.24228 12.6422 4.12878 12.5187 4.02314 12.3857C3.96238 12.3111 3.89568 12.243 3.82935 12.1742C3.79899 12.1423 3.76865 12.1104 3.73832 12.0785C3.69161 12.0294 3.64484 11.9805 3.59787 11.9317C3.31079 11.6333 3.04515 11.3155 2.85186 10.9378C2.8417 10.9183 2.83153 10.8989 2.82106 10.8789C2.80107 10.8404 2.78124 10.8018 2.7616 10.7631C2.73829 10.7172 2.71438 10.6717 2.69037 10.6262C2.48834 10.2245 2.37213 9.76929 2.30174 9.32131C2.29663 9.29108 2.29151 9.26085 2.28625 9.22971C2.21233 8.70259 2.21681 8.11072 2.32455 7.59059C2.33407 7.5435 2.33407 7.5435 2.34379 7.49547C2.4693 6.94431 2.70801 6.42978 3.03143 5.98175C3.04663 5.96063 3.06183 5.93952 3.07748 5.91776C3.12215 5.85708 3.16772 5.7974 3.21385 5.73799C3.22316 5.72596 3.23247 5.71394 3.24207 5.70155C3.38449 5.5181 3.53164 5.34016 3.68348 5.16558C3.71589 5.12814 3.74802 5.09045 3.78009 5.05269C3.99781 4.797 4.22052 4.54041 4.46809 4.3173C4.5157 4.27348 4.5615 4.22784 4.60733 4.18191C5.31221 3.4783 6.20453 2.9797 7.1856 2.97987Z" fill="#0480FE"/>
<path d="M8.45849 9.32136C10.4461 9.28397 12.1086 9.92503 13.8855 11.6615C13.9941 11.7739 14.1009 11.8882 14.2076 12.0026C14.2369 12.0339 14.2662 12.0652 14.2955 12.0964C14.3562 12.1613 14.4168 12.2261 14.4774 12.291C14.5546 12.3737 14.6319 12.4563 14.7093 12.5388C14.7695 12.6031 14.8297 12.6674 14.8898 12.7318C14.9183 12.7623 14.9468 12.7927 14.9753 12.8232C15.2429 13.1088 15.2429 13.1088 15.3597 13.2564C15.4088 13.3174 15.4621 13.3726 15.5159 13.4288C15.5862 13.5021 15.6528 13.5762 15.7169 13.6558C15.8047 13.7642 15.8991 13.8646 15.9948 13.9651C16.104 14.0797 16.209 14.1957 16.3088 14.3197C16.3755 14.4002 16.4475 14.4748 16.5193 14.5501C16.6225 14.6592 16.7232 14.7686 16.8168 14.8874C16.8507 14.9289 16.8866 14.9662 16.924 15.0041C17.0012 15.0853 17.0681 15.1737 17.1349 15.2646C17.1449 15.2782 17.1549 15.2917 17.1652 15.3057C17.5699 15.8626 17.8395 16.4973 17.9444 17.1949C17.9485 17.22 17.9525 17.2451 17.9567 17.271C17.9912 17.5022 17.9982 17.7278 17.9972 17.9613C17.9971 17.9805 17.9971 17.9997 17.997 18.0195C17.991 19.4978 17.4055 20.6299 16.4451 21.6496C16.4325 21.6628 16.42 21.6759 16.4072 21.6895C16.3695 21.7306 16.3345 21.7734 16.2998 21.8173C16.2138 21.9241 16.1205 22.0225 16.0263 22.1209C15.9629 22.1876 15.9025 22.2554 15.8448 22.3278C15.734 22.4647 15.6138 22.5918 15.4941 22.7197C15.4535 22.7631 15.4131 22.8067 15.3728 22.8503C15.2186 23.016 15.0614 23.1694 14.8889 23.3134C14.8658 23.3335 14.8427 23.3536 14.8189 23.3742C14.2168 23.8749 13.4753 24.1268 12.7156 24.1242C12.6868 24.1243 12.658 24.1244 12.6284 24.1245C12.5495 24.1247 12.4705 24.1247 12.3916 24.1245C12.3061 24.1245 12.2207 24.1247 12.1352 24.1249C11.9681 24.1252 11.801 24.1252 11.6339 24.1252C11.4979 24.1251 11.362 24.1252 11.2261 24.1253C11.2067 24.1253 11.1873 24.1253 11.1673 24.1253C11.1278 24.1254 11.0884 24.1254 11.049 24.1254C10.6798 24.1257 10.3107 24.1256 9.94158 24.1255C9.60454 24.1254 9.26751 24.1256 8.93047 24.1261C8.58363 24.1266 8.23679 24.1268 7.88995 24.1267C7.69553 24.1266 7.50112 24.1267 7.3067 24.127C7.14121 24.1273 6.97572 24.1274 6.81022 24.1271C6.72594 24.1269 6.64166 24.1269 6.55737 24.1272C6.1428 24.1285 5.76403 24.1129 5.36872 23.967C5.34856 23.9596 5.32841 23.9523 5.30764 23.9447C5.11766 23.8734 4.93993 23.7842 4.76444 23.679C4.75005 23.6704 4.73567 23.6618 4.72084 23.653C4.39889 23.4579 4.10733 23.2351 3.84155 22.9595C3.8081 22.9248 3.77431 22.8906 3.74046 22.8563C3.08043 22.1745 2.72089 21.1922 2.56825 20.2404C2.5649 20.2198 2.56154 20.1992 2.55808 20.1779C2.45166 19.4532 2.48417 18.7331 2.48417 17.9993C3.40973 17.9993 4.33529 17.9993 5.28891 17.9993C5.29746 18.8068 5.29746 18.8068 5.29981 19.0596C5.30072 19.1359 5.30072 19.1359 5.30169 19.2122C5.30208 19.2456 5.3024 19.279 5.30265 19.3123C5.30677 19.8422 5.39053 20.3086 5.74496 20.7051C5.95197 20.9106 6.20447 21.0734 6.49354 21.074C6.52603 21.0742 6.52603 21.0742 6.55917 21.0744C6.58278 21.0744 6.60639 21.0744 6.63072 21.0744C6.66856 21.0745 6.66856 21.0745 6.70717 21.0746C6.79188 21.0749 6.8766 21.075 6.96132 21.0751C7.022 21.0752 7.08268 21.0754 7.14336 21.0756C7.32564 21.0761 7.50791 21.0763 7.69019 21.0765C7.77617 21.0766 7.86216 21.0768 7.94814 21.0769C8.23426 21.0773 8.52039 21.0776 8.80651 21.0778C8.88073 21.0779 8.95494 21.0779 9.02916 21.078C9.04761 21.078 9.06605 21.078 9.08506 21.078C9.38329 21.0782 9.68153 21.0788 9.97977 21.0796C10.2865 21.0804 10.5931 21.0809 10.8998 21.0809C11.0718 21.081 11.2438 21.0812 11.4158 21.0818C11.5624 21.0824 11.709 21.0825 11.8556 21.0823C11.9303 21.0822 12.0049 21.0823 12.0795 21.0827C12.9588 21.0874 13.5999 20.7932 14.2363 20.1549C14.2841 20.1075 14.3325 20.0623 14.3829 20.018C14.8662 19.577 15.2636 18.7962 15.3293 18.1202C15.3328 18.0452 15.3339 17.9708 15.3335 17.8957C15.3334 17.8692 15.3333 17.8427 15.3331 17.8154C15.3233 17.3406 15.1354 16.9843 14.8311 16.6479C14.7932 16.6049 14.757 16.5606 14.7208 16.5159C14.6381 16.4142 14.5523 16.3161 14.4656 16.2183C14.4332 16.1818 14.4009 16.1452 14.3686 16.1086C14.3525 16.0904 14.3365 16.0722 14.3199 16.0535C14.2509 15.9752 14.1822 15.8964 14.1136 15.8177C13.9999 15.6873 13.8858 15.5573 13.7715 15.4276C13.6441 15.2831 13.5171 15.1382 13.3905 14.9929C13.2898 14.8774 13.1887 14.7625 13.0874 14.6476C12.8745 14.4059 12.6622 14.1636 12.4518 13.9194C12.3307 13.7788 12.2083 13.6396 12.0857 13.5005C11.9457 13.3417 11.8064 13.1823 11.6672 13.0227C11.601 12.9468 11.5347 12.8709 11.4684 12.795C11.4418 12.7645 11.4152 12.7341 11.3886 12.7036C11.3689 12.681 11.3689 12.681 11.3487 12.6579C11.3088 12.6122 11.2689 12.5665 11.229 12.5208C11.2158 12.5057 11.2027 12.4906 11.1891 12.475C11.1625 12.4446 11.136 12.4142 11.1094 12.3837C11.0424 12.3069 10.9753 12.2302 10.9082 12.1534C10.7834 12.0106 10.6588 11.8677 10.535 11.724C10.4046 11.5727 10.273 11.4227 10.1413 11.2727C9.96016 11.0664 9.7794 10.8596 9.60005 10.6514C9.48419 10.5169 9.36739 10.3834 9.25031 10.2502C9.17759 10.1674 9.10498 10.0845 9.03265 10.0013C9.01855 9.98513 9.00446 9.96892 8.98993 9.95223C8.96349 9.92182 8.93707 9.8914 8.91068 9.86094C8.83442 9.7733 8.75625 9.68816 8.67683 9.6038C8.6337 9.55737 8.59271 9.50937 8.55255 9.46C8.53944 9.44401 8.52633 9.42801 8.51282 9.41153C8.48129 9.37011 8.48129 9.37011 8.45849 9.32136Z" fill="#0BC4EE"/>
<path d="M30.8838 14.3502C31.3498 14.6055 31.7782 14.9311 32.1687 15.3269C32.5592 15.7099 32.7356 16.2205 32.6978 16.8589C32.66 17.3058 32.5214 17.7272 32.2821 18.1229C32.0553 18.5059 31.753 18.8379 31.375 19.1188C30.9846 19.4124 30.5373 19.6423 30.0334 19.8082C29.5296 19.9741 28.9942 20.0572 28.4273 20.0572C27.5581 20.0572 26.8275 19.9231 26.2354 19.655C25.6559 19.3996 25.1961 19.0805 24.856 18.6974C24.5033 18.3272 24.2513 17.9314 24.1001 17.5101C23.949 17.0888 23.8671 16.7185 23.8545 16.3993H25.8386C25.8763 16.8717 26.1094 17.2867 26.5377 17.6441C26.9786 17.9888 27.577 18.1612 28.3328 18.1612C28.9375 18.1612 29.4288 18.0527 29.8067 17.8356C30.1972 17.6186 30.4303 17.3313 30.5058 16.9738C30.5436 16.7185 30.468 16.5015 30.2791 16.3227C30.1027 16.1439 29.8445 15.978 29.5044 15.8248C29.2398 15.7099 28.9564 15.6141 28.654 15.5375C28.3517 15.4482 28.0494 15.3716 27.747 15.3077C27.4573 15.2438 27.1738 15.1864 26.8967 15.1353C26.6322 15.0715 26.4054 15.0013 26.2165 14.9247C25.574 14.7204 25.0575 14.4012 24.667 13.9671C24.2891 13.5331 24.1316 12.9713 24.1946 12.2819C24.2072 11.9244 24.3143 11.5668 24.5158 11.2094C24.7174 10.8519 24.9946 10.5327 25.3473 10.2518C25.6874 9.98373 26.1031 9.76034 26.5944 9.58156C27.0857 9.40279 27.64 9.31345 28.2572 9.31345C28.9249 9.31345 29.5107 9.42194 30.0145 9.63901C30.5311 9.84326 30.9657 10.1051 31.3184 10.4242C31.6585 10.7434 31.9105 11.1009 32.0742 11.4967C32.2506 11.8797 32.3324 12.2435 32.3198 12.5883H30.3547C30.3547 12.3202 30.1909 12.0202 29.8634 11.6882C29.5358 11.3562 28.9942 11.1902 28.2383 11.1902C27.5833 11.1902 27.092 11.3052 26.7645 11.535C26.4369 11.752 26.2732 12.0073 26.2732 12.301C26.2479 12.6713 26.3613 12.9266 26.6133 13.067C26.8653 13.2075 27.1738 13.3287 27.5392 13.4309C27.7534 13.5075 27.999 13.5777 28.2761 13.6416C28.5659 13.6926 28.8682 13.7501 29.1831 13.8139C29.4855 13.8905 29.7815 13.9736 30.0712 14.0629C30.3736 14.1395 30.6444 14.2353 30.8838 14.3502ZM43.4109 15.3843H35.7202C35.7958 16.1504 36.0855 16.8079 36.5895 17.3569C37.1059 17.9058 37.7358 18.1804 38.479 18.1804C39.1719 18.1804 39.7135 18.0207 40.1041 17.7016C40.4946 17.3824 40.7402 17.076 40.841 16.7823H43.0707C42.9574 17.1398 42.7873 17.5101 42.5605 17.8931C42.3338 18.2761 42.0377 18.6272 41.6724 18.9464C41.3071 19.2655 40.8599 19.5273 40.3308 19.7316C39.8143 19.9358 39.2097 20.038 38.5168 20.038C37.7861 20.038 37.1122 19.8975 36.495 19.6167C35.8903 19.3486 35.3675 18.972 34.9266 18.4868C34.4731 18.0016 34.1203 17.4335 33.8685 16.7823C33.629 16.1312 33.5094 15.429 33.5094 14.6757C33.5094 13.9224 33.6228 13.2202 33.8496 12.5691C34.0889 11.9052 34.429 11.337 34.8699 10.8647C35.2982 10.3795 35.821 10.0029 36.4383 9.73477C37.0555 9.45392 37.7421 9.31345 38.4979 9.31345C39.153 9.31345 39.7829 9.44109 40.3875 9.69647C40.9922 9.93901 41.5275 10.3093 41.9937 10.8072C42.4597 11.3051 42.8188 11.9371 43.0707 12.7032C43.3353 13.4565 43.4487 14.3502 43.4109 15.3843ZM35.7202 13.6607H41.2C41.0992 12.933 40.8095 12.3329 40.3308 11.8605C39.8521 11.3882 39.2349 11.1519 38.479 11.1519C37.7483 11.1519 37.1374 11.3818 36.6461 11.8414C36.1674 12.2883 35.8588 12.8947 35.7202 13.6607ZM47.0803 19.6167H45.0585V5.94287H47.0803V19.6167ZM51.3983 19.6167H49.3765V5.94287H51.3983V19.6167ZM62.5944 19.6167H60.497C60.4214 19.4762 60.3521 19.3039 60.2891 19.0996C60.2261 18.9081 60.1821 18.6847 60.1569 18.4293C59.7789 18.8123 59.294 19.1506 58.7019 19.4443C58.1098 19.7507 57.4611 19.9295 56.7556 19.9806C56.2769 20.0189 55.8171 19.9933 55.3762 19.9039C54.9353 19.8273 54.5448 19.6869 54.2047 19.4826C53.8645 19.2784 53.5811 19.0103 53.3543 18.6783C53.1276 18.3463 52.989 17.9505 52.9386 17.4909C52.8127 16.5844 52.9828 15.8504 53.4488 15.2886C53.9275 14.7268 54.5448 14.331 55.3006 14.1012C55.5777 14.0119 55.8675 13.948 56.1698 13.9097C56.4722 13.8586 56.7745 13.8203 57.0768 13.7948C57.3666 13.7565 57.6563 13.7246 57.946 13.699C58.2358 13.6735 58.5192 13.6352 58.7963 13.5841C58.9349 13.5586 59.0798 13.5331 59.231 13.5075C59.3947 13.4692 59.5459 13.4182 59.6845 13.3543C59.8231 13.2777 59.9364 13.1819 60.0246 13.067C60.1254 12.9521 60.1758 12.7925 60.1758 12.5883C60.1758 12.2435 59.9868 11.9244 59.6089 11.6307C59.2435 11.3243 58.6577 11.1711 57.8516 11.1711C57.0579 11.1711 56.4469 11.3435 56.0187 11.6882C55.603 12.0329 55.414 12.4351 55.4518 12.8947H53.4866C53.4236 12.3712 53.4992 11.8988 53.7134 11.4775C53.9275 11.0435 54.2361 10.6732 54.6393 10.3668C55.0424 10.0603 55.5148 9.82411 56.0565 9.65817C56.6108 9.49222 57.2028 9.4092 57.8327 9.4092C58.4121 9.4092 58.9664 9.48581 59.4955 9.63901C60.0372 9.77949 60.5159 9.99015 60.9316 10.271C61.3347 10.5518 61.656 10.8966 61.8953 11.3052C62.1473 11.7009 62.2732 12.1542 62.2732 12.6649V18.008C62.2732 18.2251 62.2858 18.4293 62.311 18.6208C62.3488 18.8123 62.3866 18.9783 62.4244 19.1188C62.4622 19.2592 62.4936 19.3741 62.5188 19.4635C62.5566 19.5528 62.5819 19.6039 62.5944 19.6167ZM60.1758 15.7673V14.7715C60.0246 14.8481 59.8608 14.9183 59.6845 14.9821C59.5207 15.0332 59.3569 15.0779 59.1932 15.1162C58.9916 15.1672 58.7649 15.212 58.5129 15.2503C58.2609 15.2886 58.0091 15.3269 57.7571 15.3652C57.5051 15.4035 57.2658 15.4418 57.039 15.4801C56.8123 15.5184 56.6233 15.5631 56.4722 15.6141C55.9809 15.7801 55.603 15.978 55.3384 16.2078C55.0864 16.4376 55.0046 16.7759 55.0928 17.2228C55.1306 17.4526 55.2187 17.6377 55.3573 17.7782C55.5085 17.9058 55.6849 18.0016 55.8864 18.0655C56.0879 18.1293 56.3021 18.1676 56.5289 18.1804C56.7682 18.1804 57.0012 18.1612 57.228 18.1229C57.6689 18.0719 58.0657 17.9633 58.4184 17.7973C58.7838 17.6314 59.0987 17.4399 59.3632 17.2228C59.6152 17.0057 59.8104 16.7696 59.949 16.5142C60.1002 16.2588 60.1758 16.0099 60.1758 15.7673ZM69.6138 9.35175V11.4775C69.2611 11.4775 68.9524 11.5031 68.6879 11.5541C68.436 11.5924 68.1777 11.6818 67.9131 11.8222C67.4093 12.1031 67.0314 12.4925 66.7794 12.9904C66.5275 13.4884 66.4015 14.1459 66.4015 14.963V19.655H64.3418V9.77307H66.4015V11.0179C66.5904 10.737 66.8298 10.4752 67.1195 10.2327C67.4093 9.99015 67.7305 9.79222 68.0832 9.63901C68.2092 9.58798 68.3541 9.54326 68.5178 9.50496C68.6942 9.46666 68.8579 9.43477 69.0091 9.4092C69.1603 9.39647 69.2925 9.39005 69.4059 9.39005C69.5193 9.37732 69.5886 9.36449 69.6138 9.35175ZM74.7752 9.39005C75.531 9.39005 76.2113 9.53052 76.8159 9.81137C77.4332 10.0795 77.9622 10.4498 78.4032 10.9221C78.8314 11.3945 79.1653 11.9563 79.4046 12.6074C79.6436 13.2458 79.7636 13.9416 79.7636 14.6949C79.7636 15.4482 79.6436 16.1504 79.4046 16.8015C79.1653 17.4526 78.8314 18.0207 78.4032 18.5059C77.9622 18.9783 77.4332 19.3486 76.8159 19.6167C76.2113 19.8975 75.531 20.038 74.7752 20.038C74.0193 20.038 73.3328 19.8975 72.7155 19.6167C72.1109 19.3486 71.5943 18.9783 71.1661 18.5059C70.7378 18.0207 70.4102 17.4526 70.1835 16.8015C69.9567 16.1504 69.8433 15.4482 69.8433 14.6949C69.8433 13.9416 69.9567 13.2458 70.1835 12.6074C70.4102 11.9563 70.7378 11.3945 71.1661 10.9221C71.5943 10.4498 72.1109 10.0795 72.7155 9.81137C73.3328 9.53052 74.0193 9.39005 74.7752 9.39005ZM74.7752 18.1612C75.6192 18.1612 76.2932 17.8356 76.797 17.1845C77.3009 16.5334 77.5529 15.7035 77.5529 14.6949C77.5529 13.699 77.3009 12.8819 76.797 12.2435C76.2932 11.6052 75.6192 11.286 74.7752 11.286C73.9185 11.286 73.2446 11.6052 72.7533 12.2435C72.2746 12.8819 72.0353 13.699 72.0353 14.6949C72.0353 15.7035 72.2746 16.5334 72.7533 17.1845C73.2446 17.8356 73.9185 18.1612 74.7752 18.1612Z" fill="black"/>
</svg>
